<?xml version="1.0" encoding="iso-8859-1"?>
<!-- Generator: Adobe Illustrator 21.0.0, SVG Export Plug-In . SVG Version: 6.00 Build 0)  -->
<svg xmlns="http://www.w3.org/2000/svg" xmlns:xlink="http://www.w3.org/1999/xlink" version="1.1" id="Capa_1" x="0px" y="0px" viewBox="0 0 512 512" style="enable-background:new 0 0 512 512;" xml:space="preserve" width="512" height="512">
<g>
	<path d="M437.02,74.98C390.7,28.65,326.7,0,256,0C114.61,0,0,114.61,0,256c0,70.7,28.65,134.7,74.98,181.02   C121.3,483.35,185.3,512,256,512s134.7-28.65,181.02-74.98C483.35,390.7,512,326.7,512,256S483.35,121.3,437.02,74.98z    M426.06,404.848l-40.094-40.095l-21.213,21.213l40.094,40.095c-18.165,15.932-38.581,28.756-60.887,38.189   c-23.254,9.84-47.739,15.61-72.96,17.249V424.8h-30v56.699c-25.221-1.639-49.706-7.409-72.96-17.249   c-22.306-9.433-42.723-22.257-60.888-38.189l40.094-40.095l-21.213-21.213l-40.094,40.095   c-15.932-18.165-28.756-38.581-38.189-60.888c-9.84-23.254-15.61-47.739-17.249-72.96H87.2v-30H30.501   c1.639-25.221,7.409-49.706,17.249-72.96c9.433-22.306,22.257-42.723,38.19-60.888l40.094,40.094l21.213-21.213l-40.094-40.094   c18.165-15.932,38.581-28.756,60.888-38.189c23.254-9.84,47.739-15.61,72.96-17.249V87.2h30V30.501   c25.221,1.639,49.706,7.409,72.96,17.249c22.306,9.433,42.722,22.257,60.887,38.189l-40.094,40.094l21.213,21.213l40.094-40.094   c15.932,18.165,28.757,38.581,38.19,60.888c9.84,23.254,15.61,47.739,17.249,72.96H424.8v30h56.699   c-1.639,25.221-7.409,49.706-17.249,72.96C454.817,366.267,441.993,386.683,426.06,404.848z"/>
	<polygon points="241,249.787 150.358,340.429 171.571,361.642 271,262.213 271,153.397 241,153.397  "/>
</g>















</svg>
