<?xml version="1.0" encoding="iso-8859-1"?>
<!-- Generator: Adobe Illustrator 19.0.0, SVG Export Plug-In . SVG Version: 6.00 Build 0)  -->
<svg xmlns="http://www.w3.org/2000/svg" xmlns:xlink="http://www.w3.org/1999/xlink" version="1.1" id="Capa_1" x="0px" y="0px" viewBox="0 0 512 512" style="enable-background:new 0 0 512 512;" xml:space="preserve" width="512" height="512">
<g>
	<path d="M451.952,30.024V0h-30v30.024h-30.048V0h-30v30.024h-30.048V0h-30v30.024h-91.713V0h-30v30.024h-30.048V0h-30v30.024   H90.048V0h-30v30.024H0V512h512V30.024H451.952z M60.048,60.024v30.024h30V60.024h30.048v30.024h30V60.024h30.048v30.024h30V60.024   h91.713v30.024h30V60.024h30.048v30.024h30V60.024h30.048v30.024h30V60.024H482v60.072H30V60.024H60.048z M30,482V150.096h452V482   H30z"/>
	<path d="M60,452h392V180.096H60V452z M90,371.365h60.5V422H90V371.365z M331.5,341.365H271v-50.634h60.5V341.365z M361.5,290.731   H422v50.634h-60.5V290.731z M271,371.365h60.5V422H271V371.365z M241,422h-60.5v-50.635H241V422z M271,260.731v-50.635h60.5v50.635   H271z M241,260.731h-60.5v-50.635H241V260.731z M241,290.731v50.634h-60.5v-50.634H241z M150.5,341.365H90v-50.634h60.5V341.365z    M361.5,422v-50.635H422V422H361.5z M422,260.731h-60.5v-50.635H422V260.731z M150.5,210.096v50.635H90v-50.635H150.5z"/>
</g>















</svg>
