<svg xmlns="http://www.w3.org/2000/svg" height="610pt" version="1.1" viewBox="-55 0 610 610" width="610pt">
<g id="surface1">
<path d="M 373 302 C 390.859375 258 400 223.628906 400 200 C 400 89.539062 310.460938 0 200 0 C 89.539062 0 0 89.539062 0 200 C 0 306.519531 183.769531 593.261719 191.59375 605.410156 C 193.433594 608.273438 196.597656 610 200 610 C 203.402344 610 206.566406 608.273438 208.40625 605.410156 C 208.558594 605.179688 221.832031 584.511719 241.070312 552.808594 C 286 600.546875 356.742188 613.535156 415.703125 584.875 C 474.65625 556.210938 508.144531 492.554688 498.359375 427.734375 C 488.574219 362.914062 437.789062 311.984375 373 302 Z M 200 581.296875 C 163.40625 522.871094 20 288.28125 20 200 C 20 100.589844 100.589844 20 200 20 C 299.410156 20 380 100.589844 380 200 C 380 222 370.570312 255.789062 352.179688 300.113281 C 351.449219 300.113281 350.742188 300 350 300 C 293.945312 299.917969 242.535156 331.140625 216.765625 380.921875 C 190.996094 430.703125 195.179688 490.707031 227.613281 536.429688 C 216.089844 555.507812 206.410156 571.097656 200 581.296875 Z M 350 580 C 278.203125 580 220 521.796875 220 450 C 220 378.203125 278.203125 320 350 320 C 421.796875 320 480 378.203125 480 450 C 479.917969 521.761719 421.761719 579.917969 350 580 Z M 350 580 " style=" stroke:none;fill-rule:nonzero;fill:rgb(0%,0%,0%);fill-opacity:1;" />
<path d="M 360 440 L 360 350 L 340 350 L 340 440 L 250 440 L 250 460 L 340 460 L 340 540 L 360 540 L 360 460 L 450 460 L 450 440 Z M 360 440 " style=" stroke:none;fill-rule:nonzero;fill:rgb(0%,0%,0%);fill-opacity:1;" />
<path d="M 310 200 C 310 139.25 260.75 90 200 90 C 139.25 90 90 139.25 90 200 C 90 260.75 139.25 310 200 310 C 260.722656 309.925781 309.925781 260.722656 310 200 Z M 110 200 C 110 150.292969 150.292969 110 200 110 C 249.707031 110 290 150.292969 290 200 C 290 249.707031 249.707031 290 200 290 C 150.316406 289.945312 110.054688 249.683594 110 200 Z M 110 200 " style=" stroke:none;fill-rule:nonzero;fill:rgb(0%,0%,0%);fill-opacity:1;" />
</g>
</svg>