<?xml version="1.0" encoding="iso-8859-1"?>
<!-- Generator: Adobe Illustrator 19.0.0, SVG Export Plug-In . SVG Version: 6.00 Build 0)  -->
<svg version="1.1" id="Capa_1" xmlns="http://www.w3.org/2000/svg" xmlns:xlink="http://www.w3.org/1999/xlink" x="0px" y="0px"
	 viewBox="0 0 512 512" style="enable-background:new 0 0 512 512;" xml:space="preserve">
<g>
	<g>
		<path d="M460.707,313.67c-10.131,7.124-17.45,12.271-34.038,12.271s-23.907-5.147-34.038-12.271
			c-11.234-7.899-25.215-17.729-51.293-17.729c-26.079,0-40.06,9.831-51.294,17.73c-10.131,7.124-17.45,12.27-34.037,12.27
			s-23.908-5.147-34.039-12.271c-11.234-7.899-25.215-17.729-51.294-17.729c-26.08,0-40.062,9.831-51.296,17.729
			c-10.132,7.124-17.452,12.271-34.041,12.271c-16.589,0-23.909-5.147-34.041-12.271C40.062,305.772,26.08,295.941,0,295.941v30
			c16.589,0,23.909,5.147,34.041,12.271c11.234,7.899,25.216,17.729,51.296,17.729c26.08,0,40.062-9.831,51.296-17.729
			c10.132-7.124,17.452-12.271,34.041-12.271c16.588,0,23.908,5.147,34.039,12.271c11.234,7.899,25.215,17.729,51.294,17.729
			c26.078,0,40.059-9.831,51.293-17.729c10.131-7.124,17.451-12.271,34.038-12.271c16.587,0,23.906,5.147,34.037,12.27
			c11.234,7.899,25.215,17.73,51.294,17.73c26.079,0,40.06-9.831,51.294-17.73c10.131-7.124,17.45-12.27,34.037-12.27v-30
			C485.922,295.941,471.941,305.772,460.707,313.67z"/>
	</g>
</g>
<g>
	<g>
		<path d="M392.631,383.67c-11.235-7.898-25.215-17.729-51.293-17.729c-26.079,0-40.06,9.831-51.294,17.73
			c-10.131,7.124-17.45,12.27-34.037,12.27c-16.588,0-23.908-5.147-34.039-12.271c-11.234-7.899-25.215-17.729-51.294-17.729
			c-26.08,0-40.062,9.831-51.296,17.729c-10.132,7.124-17.452,12.271-34.041,12.271v30c26.08,0,40.062-9.831,51.296-17.729
			c10.132-7.124,17.452-12.271,34.041-12.271c16.587,0,23.908,5.147,34.039,12.271c11.234,7.899,25.215,17.729,51.294,17.729
			c26.078,0,40.059-9.831,51.293-17.729c10.131-7.124,17.45-12.271,34.038-12.271c16.587,0,23.906,5.147,34.037,12.27
			c11.234,7.899,25.215,17.73,51.294,17.73v-30C410.081,395.941,402.762,390.794,392.631,383.67z"/>
	</g>
</g>
<g>
	<g>
		<path d="M448.195,226.059L448.195,226.059c-30.499,0-57.733-17.796-69.382-45.338C354.491,123.216,298.434,86.059,236,86.059
			c-40.257,0-78.412,15.383-107.436,43.317l-9.016,8.677l18.907,28.487L150,161.484c8.589-3.761,17.723-5.583,27.186-5.415
			c3.751,0.067,7.515,0.479,11.188,1.227c16.995,3.461,23.622,15.272,26.059,22.004c3.831,10.582,2.258,22.026-4.315,31.398
			c-6.747,9.618-17.757,15.36-29.452,15.36H0v30h180.666c21.464,0,41.655-10.517,54.012-28.132
			c12.268-17.488,15.17-38.934,7.963-58.838c-7.789-21.513-25.386-36.526-48.281-41.188c-2.842-0.579-5.721-1.023-8.615-1.329
			c15.661-6.888,32.709-10.512,50.254-10.512c50.354,0,95.566,29.969,115.183,76.349c16.354,38.667,54.435,63.651,97.013,63.651H512
			v-30H448.195z"/>
	</g>
</g>
<g>
</g>
<g>
</g>
<g>
</g>
<g>
</g>
<g>
</g>
<g>
</g>
<g>
</g>
<g>
</g>
<g>
</g>
<g>
</g>
<g>
</g>
<g>
</g>
<g>
</g>
<g>
</g>
<g>
</g>
</svg>
