<svg height="682pt" viewBox="-21 -21 682 682.41478" width="682pt" xmlns="http://www.w3.org/2000/svg"><path d="m332.164062 343.117188-13.246093-13.25 13.246093-13.246094 13.246094 13.246094zm-22.082031-22.078126-13.246093-13.246093 13.246093-13.253907 13.246094 13.246094zm0 0"/><path d="m630.339844.121094c-148.996094 1.835937-285.929688 64.109375-381.996094 161.074218-71.414062 71.433594-132.238281 152.554688-180.792969 241.132813l-67.359375 122.875 35.558594 35.558594h43.441406v43.433593l35.566406 35.570313 122.875-67.359375c88.617188-48.582031 169.785157-109.445312 241.253907-180.914062 98.625-98.632813 159.125-234.4375 160.941406-381.890626l.117187-9.601562zm-164.703125 378.125c-70.210938 70.203125-149.949219 130-237.015625 177.730468l-110.546875 60.601563-20.144531-20.144531v-54.410156h-54.417969l-20.136719-20.136719 60.605469-110.554688c47.726562-87.0625 107.523437-166.804687 177.730469-237.011719 93.628906-94.089843 220.976562-151.109374 359.179687-155.265624-4.09375 135.71875-59.007813 262.941406-155.253906 359.191406zm0 0"/><path d="m43.972656 523.289062h72.691406v72.695313l102.953126-56.441406c85.5-46.867188 163.816406-105.597657 232.769531-174.546875 86.097656-86.105469 137.1875-198.449219 147.863281-315.117188l1.027344-11.207031-11.210938 1.023437c-117.164062 10.730469-229.132812 62.09375-314.691406 147.457032-69.199219 69.101562-128.089844 147.675781-174.964844 233.1875zm244.234375-322.46875c78.097657-77.984374 176.289063-124.472656 276.953125-139.277343l-201.753906 201.75-51.167969-51.175781-13.246093 13.253906 115.59375 115.597656 13.25-13.253906-51.175782-51.175782 201.746094-201.746093c-14.839844 100.914062-61.5625 199.25-139.265625 276.953125-67.699219 67.695312-144.585937 125.347656-228.527344 171.367187l-75.210937 41.234375v-46.550781l151.898437-151.902344 46.96875 46.960938 13.246094-13.246094-107.167969-107.167969-13.246094 13.246094 46.953126 46.957031-151.902344 151.90625h-46.539063l41.226563-75.207031c46.019531-83.945312 103.675781-160.835938 171.367187-228.523438zm0 0"/></svg>