<?xml version="1.0" encoding="iso-8859-1"?>
<!-- Generator: Adobe Illustrator 19.0.0, SVG Export Plug-In . SVG Version: 6.00 Build 0)  -->
<svg version="1.1" id="Capa_1" xmlns="http://www.w3.org/2000/svg" xmlns:xlink="http://www.w3.org/1999/xlink" x="0px" y="0px"
	 viewBox="0 0 512 512" style="enable-background:new 0 0 512 512;" xml:space="preserve">
<g>
	<g>
		<path d="M493.628,172.019c-9.89-10.836-22.78-18.236-36.916-21.321c0.464-3.277,0.699-6.589,0.699-9.905
			c0-20.081-8.627-39.256-23.667-52.609c-3.101-2.752-7.845-2.47-10.597,0.63c-2.752,3.101-2.47,7.845,0.63,10.597
			c11.834,10.507,18.621,25.59,18.621,41.383c0,4.786-0.619,9.555-1.84,14.175c-0.563,2.128-0.162,4.397,1.095,6.203
			c1.257,1.808,3.245,2.972,5.436,3.185c28.446,2.768,49.898,26.44,49.898,55.062c0,22.701-13.616,42.85-34.686,51.335
			c-2.806,1.13-4.66,3.834-4.702,6.859c-0.419,30.077-25.231,54.547-55.31,54.547c-15.419,0-29.738-6.201-40.319-17.462
			c-1.52-1.617-3.678-2.481-5.892-2.355c-2.216,0.125-4.263,1.224-5.591,3.002c-10.566,14.137-26.732,22.244-44.354,22.244
			c-19.542,0-37.256-9.999-47.383-26.747c-1.985-3.281-6.12-4.541-9.598-2.919c-7.354,3.432-15.214,5.173-23.361,5.173
			c-18.014,0-34.958-8.829-45.327-23.618c-2.218-3.165-6.478-4.129-9.842-2.224c-5.495,3.108-11.744,4.751-18.074,4.751
			c-17.746,0-32.596-12.63-36.035-29.374c3.651,0.457,7.369,0.695,11.143,0.695c28.693,0,54.26-13.625,70.583-34.74
			c10.165,18.814,22.593,29.533,34.343,29.531c1.647,0,3.283-0.21,4.894-0.639c10.063-2.673,16.803-13.169,18.978-29.552
			c1.876-14.125,0.315-31.662-4.391-49.378c-6.241-23.493-16.823-43.264-28.653-53.772c1.085-7.503,0.195-15.383-2.989-22.851
			c-2.095-4.913-5.091-9.315-8.741-13.049c9.691-7.652,21.563-11.799,34.161-11.799c8.846,0,17.313,2.04,25.168,6.061
			c1.777,0.909,3.839,1.074,5.736,0.458c1.898-0.615,3.472-1.96,4.376-3.737c6.32-12.425,18.889-20.143,32.801-20.143
			c16.894,0,31.564,11.427,35.674,27.79c0.567,2.256,2.147,4.122,4.279,5.051c2.131,0.93,4.575,0.819,6.614-0.3
			c11.199-6.148,24.506-8.251,37.263-5.755c4.071,0.794,8.012-1.858,8.808-5.926c0.795-4.069-1.858-8.012-5.926-8.808
			c-13.252-2.59-27.033-1.286-39.404,3.592c-8.2-18.416-26.563-30.658-47.306-30.658c-17.168,0-32.882,8.341-42.491,22.171
			c-8.134-3.196-16.714-4.812-25.59-4.812c-17.511,0-33.912,6.308-46.798,17.845c-1.965-0.918-3.998-1.699-6.096-2.313
			c-0.513-3.756-1.528-7.427-3.038-10.968c-4.485-10.523-12.8-18.669-23.412-22.938c-10.612-4.269-22.251-4.15-32.775,0.335
			c-6.359,2.71-11.847,6.81-16.163,12.028c-10.647-4.549-22.771-4.631-33.611-0.01c-12.658,5.396-21.703,16.325-24.834,29.274
			c-8.987-2.286-18.52-1.595-27.27,2.134c-21.723,9.258-31.863,34.463-22.604,56.185c1.304,3.06,2.942,5.911,4.855,8.532
			c-6.313,11.353-10.944,26.607-13.148,43.53c-0.535,4.111,2.362,7.878,6.474,8.413c0.329,0.043,0.657,0.064,0.98,0.064
			c3.714,0,6.942-2.755,7.435-6.538c1.721-13.204,5.141-25.462,9.622-34.779c2.255,1.444,4.658,2.693,7.196,3.715
			c1.974,0.794,3.983,1.433,6.014,1.925c-0.118,1.881-0.189,3.767-0.189,5.652c0,17.088,4.835,33.066,13.203,46.646
			c-5.451,27.675-16.607,41.62-22.668,41.037c-4.69-0.45-12.14-11.451-14.022-34.498c-0.337-4.132-3.959-7.204-8.092-6.871
			c-4.132,0.337-7.208,3.96-6.871,8.092c2.349,28.762,12.647,46.789,27.549,48.221c0.622,0.06,1.241,0.089,1.859,0.089
			c14.076,0,26.727-15.451,34.027-40.881c10.231,10.617,23.062,18.712,37.459,23.246c1.805,23.43,19.253,42.534,41.896,46.858
			v111.923c0,11.406,9.279,20.685,20.686,20.685h12.824c1.748,9.644,10.189,16.988,20.33,16.988h16.324
			c11.407,0,20.688-9.276,20.688-20.678v-28.905c0-4.146-3.361-7.507-7.507-7.507c-4.146,0-7.507,3.361-7.507,7.507v28.905
			c0,3.124-2.545,5.665-5.675,5.665h-16.324c-3.124,0-5.665-2.541-5.665-5.665V318.844c8.442,4.813,17.85,7.882,27.664,8.887v47.093
			c0,4.146,3.361,7.507,7.507,7.507c4.146,0,7.507-3.361,7.507-7.507V327.66c5.414-0.602,10.707-1.815,15.834-3.657
			c13.235,18.02,33.965,28.6,56.632,28.6c19.589,0,37.761-7.878,50.995-21.87c0.762,0.637,1.537,1.255,2.323,1.858
			c-0.043,0.326-0.073,0.656-0.073,0.994v103.945c0,11.407,9.28,20.688,20.688,20.688h7.903
			c3.005,7.718,10.499,13.212,19.271,13.212h16.314c11.407,0,20.688-9.276,20.688-20.678V333.289c2.606-1.945,5.1-4.073,7.453-6.396
			c12.065-11.912,19.304-27.453,20.682-44.19C496.602,270.978,512,246.642,512,219.419
			C511.998,201.833,505.474,184.999,493.628,172.019z M212.749,147.459c1.925-2.131,3.622-4.438,5.071-6.885
			c7.85,9.409,15.2,24.782,19.729,41.828c8.879,33.423,3.513,58.588-3.931,60.566c-4.726,1.249-16.154-7.25-26.015-29.35
			c5.901-11.906,9.226-25.306,9.226-39.471C216.83,165.006,215.449,156.054,212.749,147.459z M47.369,154.636
			c-0.086-0.006-0.171-0.013-0.257-0.016c-3.002-0.167-5.989-0.82-8.861-1.975c-6.89-2.773-12.29-8.064-15.202-14.897
			c-2.913-6.834-2.99-14.393-0.217-21.285c2.772-6.892,8.063-12.292,14.897-15.204c7.823-3.336,16.617-2.926,24.124,1.125
			c2.336,1.26,5.167,1.193,7.44-0.179c2.274-1.371,3.654-3.842,3.629-6.498c-0.104-11.284,6.533-21.433,16.909-25.856
			c8.507-3.625,18.231-2.791,26.015,2.231c1.729,1.116,3.839,1.473,5.838,0.989c2-0.484,3.712-1.768,4.738-3.55
			c3.028-5.26,7.587-9.301,13.185-11.687c6.834-2.913,14.393-2.99,21.285-0.217s12.292,8.063,15.204,14.896
			c1.513,3.551,2.263,7.3,2.228,11.145c-0.035,3.774,2.738,6.987,6.478,7.505c3.947,0.545,7.621,1.896,10.862,3.893
			c0.347,0.271,0.715,0.502,1.093,0.704c4.287,2.931,7.721,7.056,9.851,12.053c6.013,14.107-0.573,30.476-14.68,36.489
			c-14.106,6.011-30.476-0.571-36.489-14.679c-1.513-3.551-2.263-7.3-2.228-11.145c0.035-3.774-2.738-6.987-6.477-7.505
			c-4.015-0.555-7.934-2.009-11.333-4.203c-1.727-1.115-3.836-1.472-5.838-0.988c-2,0.484-3.711,1.769-4.738,3.55
			c-3.028,5.26-7.587,9.301-13.185,11.687c-7.824,3.335-16.617,2.925-24.124-1.125c-2.336-1.26-5.166-1.193-7.44,0.179
			c-2.273,1.371-3.654,3.842-3.629,6.498c0.104,11.284-6.533,21.433-16.91,25.856C55.631,154.092,51.488,154.826,47.369,154.636z
			 M53.487,174.149c0-1.59,0.06-3.183,0.161-4.769c4.003-0.477,7.964-1.517,11.775-3.143c12.659-5.396,21.704-16.325,24.834-29.273
			c8.987,2.286,18.519,1.595,27.27-2.134c6.361-2.711,11.852-6.814,16.169-12.035c1.593,0.679,3.23,1.263,4.892,1.747
			c0.513,3.755,1.529,7.426,3.038,10.967c4.485,10.523,12.8,18.669,23.412,22.938c10.613,4.27,22.251,4.151,32.775-0.334
			c0.695-0.296,1.376-0.609,2.047-0.938c1.294,5.523,1.956,11.201,1.956,16.974c0,40.895-33.27,74.165-74.165,74.165
			S53.487,215.043,53.487,174.149z M175.974,423.684h-12.475c-3.129,0-5.673-2.545-5.673-5.673V306.742
			c4.901-0.503,9.711-1.699,14.266-3.556c1.235,1.458,2.541,2.841,3.881,4.185V423.684z M386.548,443.204h-6.486
			c-3.129-0.001-5.675-2.546-5.675-5.675v-96.177c3.92,1.697,7.99,3.046,12.161,4.01V443.204z M429.226,450.751
			c0,3.124-2.545,5.665-5.675,5.665h-16.314c-3.129,0-5.675-2.541-5.675-5.665V347.157c0.242,0.002,0.482,0.016,0.725,0.016
			c9.391,0,18.507-1.838,26.94-5.334V450.751z"/>
	</g>
</g>
<g>
	<g>
		<path d="M92.272,169.36c-4.146,0-7.507,3.361-7.507,7.507v0.91c0,4.146,3.361,7.507,7.507,7.507s7.507-3.361,7.507-7.507v-0.91
			C99.779,172.72,96.418,169.36,92.272,169.36z"/>
	</g>
</g>
<g>
	<g>
		<path d="M153.848,169.36c-4.146,0-7.507,3.361-7.507,7.507v0.91c0,4.146,3.361,7.507,7.507,7.507s7.507-3.361,7.507-7.507v-0.91
			C161.354,172.721,157.993,169.36,153.848,169.36z"/>
	</g>
</g>
<g>
	<g>
		<path d="M400.579,131.573c-4.146,0-7.507,3.361-7.507,7.507v0.911c0,4.146,3.361,7.507,7.507,7.507s7.507-3.361,7.507-7.507
			v-0.911C408.085,134.934,404.724,131.573,400.579,131.573z"/>
	</g>
</g>
<g>
	<g>
		<path d="M380.267,148.106c-4.146,0-7.507,3.361-7.507,7.507v0.911c0,4.146,3.361,7.507,7.507,7.507s7.507-3.361,7.507-7.507
			v-0.911C387.774,151.467,384.413,148.106,380.267,148.106z"/>
	</g>
</g>
<g>
	<g>
		<path d="M406.208,208.04c-4.087-0.614-7.9,2.205-8.539,6.281c-0.021,0.129-2.16,13.024-13.116,20.754
			c-8.445,5.958-20.163,7.58-34.825,4.817c-4.071-0.767-7.999,1.914-8.766,5.988c-0.767,4.074,1.914,7.999,5.988,8.766
			c5.563,1.047,10.839,1.569,15.822,1.569c11.973,0,22.247-3.02,30.661-9.033c16.16-11.55,18.978-29.894,19.09-30.67
			C413.112,212.428,410.29,208.656,406.208,208.04z"/>
	</g>
</g>
<g>
	<g>
		<path d="M333.976,148.61c-2.075-3.588-6.667-4.817-10.256-2.74c-18.521,10.709-29.816,0.454-31.091-0.802
			c-2.884-2.933-7.599-2.999-10.564-0.135c-2.983,2.88-3.066,7.632-0.186,10.614c4.341,4.496,13.641,10.092,25.862,10.092
			c7.001-0.001,14.962-1.839,23.496-6.773C334.824,156.791,336.052,152.199,333.976,148.61z"/>
	</g>
</g>
<g>
	<g>
		<path d="M288.477,281.867c-2.075-3.588-6.668-4.815-10.256-2.741c-18.521,10.707-29.817,0.454-31.091-0.802
			c-2.885-2.932-7.6-2.999-10.565-0.135c-2.983,2.88-3.066,7.632-0.186,10.614c4.34,4.496,13.641,10.092,25.861,10.092
			c7.002,0,14.963-1.838,23.497-6.772C289.324,290.048,290.552,285.456,288.477,281.867z"/>
	</g>
</g>
<g>
</g>
<g>
</g>
<g>
</g>
<g>
</g>
<g>
</g>
<g>
</g>
<g>
</g>
<g>
</g>
<g>
</g>
<g>
</g>
<g>
</g>
<g>
</g>
<g>
</g>
<g>
</g>
<g>
</g>
</svg>
